<svg width="1024" height="753" viewBox="0 0 1024 753" fill="none" xmlns="http://www.w3.org/2000/svg">
<g opacity="0.2" filter="url(#filter0_f_175_198)">
<ellipse cx="536.5" cy="45" rx="670.5" ry="350" fill="#338AF3"/>
</g>
<path d="M57.0349 281C58.5302 281 59.6622 281.63 60.4308 282.891C61.2134 284.138 61.6047 285.953 61.6047 288.336C61.6047 290.719 61.2134 292.541 60.4308 293.802C59.6622 295.063 58.5302 295.693 57.0349 295.693C55.5536 295.693 54.4216 295.063 53.639 293.802C52.8564 292.541 52.4651 290.719 52.4651 288.336C52.4651 285.967 52.8564 284.152 53.639 282.891C54.4216 281.63 55.5536 281 57.0349 281ZM53.9534 288.336C53.9534 290.026 54.1072 291.35 54.4146 292.306L59.0683 283.099C58.5791 282.448 57.9013 282.122 57.0349 282.122C56.0706 282.122 55.316 282.635 54.771 283.66C54.2259 284.672 53.9534 286.23 53.9534 288.336ZM57.0349 294.55C58.0131 294.55 58.7748 294.044 59.3198 293.033C59.8648 292.008 60.1373 290.442 60.1373 288.336C60.1373 286.549 59.9627 285.163 59.6133 284.18L54.9596 293.469C55.4627 294.19 56.1545 294.55 57.0349 294.55Z" fill="url(#paint0_linear_175_198)" fill-opacity="0.6"/>
<path d="M58.2926 318.135H61.3741V319.236H53.3874V318.135H56.9511V306.455L53.5551 308.471L52.9682 307.536L57.1607 304.959H58.2926V318.135Z" fill="url(#paint1_linear_175_198)" fill-opacity="0.6"/>
<path d="M57.0349 328.502C58.5302 328.502 59.6622 329.133 60.4308 330.393C61.2134 331.64 61.6047 333.455 61.6047 335.838C61.6047 338.221 61.2134 340.043 60.4308 341.304C59.6622 342.565 58.5302 343.195 57.0349 343.195C55.5536 343.195 54.4216 342.565 53.639 341.304C52.8564 340.043 52.4651 338.221 52.4651 335.838C52.4651 333.469 52.8564 331.654 53.639 330.393C54.4216 329.133 55.5536 328.502 57.0349 328.502ZM53.9534 335.838C53.9534 337.529 54.1072 338.852 54.4146 339.808L59.0683 330.601C58.5791 329.95 57.9013 329.624 57.0349 329.624C56.0706 329.624 55.316 330.137 54.771 331.162C54.2259 332.174 53.9534 333.732 53.9534 335.838ZM57.0349 342.052C58.0131 342.052 58.7748 341.546 59.3198 340.535C59.8648 339.51 60.1373 337.944 60.1373 335.838C60.1373 334.051 59.9627 332.665 59.6133 331.682L54.9596 340.971C55.4627 341.692 56.1545 342.052 57.0349 342.052Z" fill="url(#paint2_linear_175_198)" fill-opacity="0.6"/>
<path d="M58.2926 365.637H61.3741V366.738H53.3874V365.637H56.9511V353.957L53.5551 355.973L52.9682 355.038L57.1607 352.461H58.2926V365.637Z" fill="url(#paint3_linear_175_198)" fill-opacity="0.6"/>
<path d="M58.2926 389.388H61.3741V390.489H53.3874V389.388H56.9511V377.708L53.5551 379.724L52.9682 378.789L57.1607 376.212H58.2926V389.388Z" fill="url(#paint4_linear_175_198)" fill-opacity="0.6"/>
<path d="M57.0349 399.755C58.5302 399.755 59.6622 400.386 60.4308 401.646C61.2134 402.893 61.6047 404.708 61.6047 407.091C61.6047 409.474 61.2134 411.296 60.4308 412.557C59.6622 413.818 58.5302 414.448 57.0349 414.448C55.5536 414.448 54.4216 413.818 53.639 412.557C52.8564 411.296 52.4651 409.474 52.4651 407.091C52.4651 404.722 52.8564 402.907 53.639 401.646C54.4216 400.386 55.5536 399.755 57.0349 399.755ZM53.9534 407.091C53.9534 408.782 54.1072 410.105 54.4146 411.061L59.0683 401.854C58.5791 401.203 57.9013 400.878 57.0349 400.878C56.0706 400.878 55.316 401.39 54.771 402.415C54.2259 403.427 53.9534 404.985 53.9534 407.091ZM57.0349 413.305C58.0131 413.305 58.7748 412.8 59.3198 411.788C59.8648 410.763 60.1373 409.197 60.1373 407.091C60.1373 405.304 59.9627 403.919 59.6133 402.935L54.9596 412.225C55.4627 412.945 56.1545 413.305 57.0349 413.305Z" fill="url(#paint5_linear_175_198)" fill-opacity="0.6"/>
<path d="M58.2926 436.89H61.3741V437.992H53.3874V436.89H56.9511V425.21L53.5551 427.226L52.9682 426.291L57.1607 423.714H58.2926V436.89Z" fill="url(#paint6_linear_175_198)" fill-opacity="0.6"/>
<path d="M57.0349 447.257C58.5302 447.257 59.6622 447.888 60.4308 449.149C61.2134 450.396 61.6047 452.211 61.6047 454.594C61.6047 456.977 61.2134 458.798 60.4308 460.059C59.6622 461.32 58.5302 461.95 57.0349 461.95C55.5536 461.95 54.4216 461.32 53.639 460.059C52.8564 458.798 52.4651 456.977 52.4651 454.594C52.4651 452.224 52.8564 450.409 53.639 449.149C54.4216 447.888 55.5536 447.257 57.0349 447.257ZM53.9534 454.594C53.9534 456.284 54.1072 457.607 54.4146 458.563L59.0683 449.356C58.5791 448.705 57.9013 448.38 57.0349 448.38C56.0706 448.38 55.316 448.892 54.771 449.918C54.2259 450.929 53.9534 452.488 53.9534 454.594ZM57.0349 460.807C58.0131 460.807 58.7748 460.302 59.3198 459.29C59.8648 458.265 60.1373 456.699 60.1373 454.594C60.1373 452.806 59.9627 451.421 59.6133 450.437L54.9596 459.727C55.4627 460.447 56.1545 460.807 57.0349 460.807Z" fill="url(#paint7_linear_175_198)" fill-opacity="0.6"/>
<path d="M57.0349 471.008C58.5302 471.008 59.6622 471.639 60.4308 472.9C61.2134 474.147 61.6047 475.962 61.6047 478.345C61.6047 480.728 61.2134 482.549 60.4308 483.81C59.6622 485.071 58.5302 485.701 57.0349 485.701C55.5536 485.701 54.4216 485.071 53.639 483.81C52.8564 482.549 52.4651 480.728 52.4651 478.345C52.4651 475.975 52.8564 474.16 53.639 472.9C54.4216 471.639 55.5536 471.008 57.0349 471.008ZM53.9534 478.345C53.9534 480.035 54.1072 481.358 54.4146 482.314L59.0683 473.107C58.5791 472.456 57.9013 472.131 57.0349 472.131C56.0706 472.131 55.316 472.643 54.771 473.669C54.2259 474.68 53.9534 476.239 53.9534 478.345ZM57.0349 484.558C58.0131 484.558 58.7748 484.053 59.3198 483.041C59.8648 482.016 60.1373 480.451 60.1373 478.345C60.1373 476.557 59.9627 475.172 59.6133 474.188L54.9596 483.478C55.4627 484.198 56.1545 484.558 57.0349 484.558Z" fill="url(#paint8_linear_175_198)" fill-opacity="0.6"/>
<path d="M58.2926 508.143H61.3741V509.245H53.3874V508.143H56.9511V496.464L53.5551 498.48L52.9682 497.544L57.1607 494.967H58.2926V508.143Z" fill="url(#paint9_linear_175_198)" fill-opacity="0.6"/>
<path d="M57.0349 518.511C58.5302 518.511 59.6622 519.141 60.4308 520.402C61.2134 521.649 61.6047 523.464 61.6047 525.847C61.6047 528.23 61.2134 530.052 60.4308 531.312C59.6622 532.573 58.5302 533.204 57.0349 533.204C55.5536 533.204 54.4216 532.573 53.639 531.312C52.8564 530.052 52.4651 528.23 52.4651 525.847C52.4651 523.478 52.8564 521.663 53.639 520.402C54.4216 519.141 55.5536 518.511 57.0349 518.511ZM53.9534 525.847C53.9534 527.537 54.1072 528.86 54.4146 529.816L59.0683 520.61C58.5791 519.958 57.9013 519.633 57.0349 519.633C56.0706 519.633 55.316 520.145 54.771 521.171C54.2259 522.182 53.9534 523.741 53.9534 525.847ZM57.0349 532.061C58.0131 532.061 58.7748 531.555 59.3198 530.543C59.8648 529.518 60.1373 527.953 60.1373 525.847C60.1373 524.059 59.9627 522.674 59.6133 521.69L54.9596 530.98C55.4627 531.7 56.1545 532.061 57.0349 532.061Z" fill="url(#paint10_linear_175_198)" fill-opacity="0.6"/>
<path d="M58.2926 555.645H61.3741V556.747H53.3874V555.645H56.9511V543.966L53.5551 545.982L52.9682 545.046L57.1607 542.469H58.2926V555.645Z" fill="url(#paint11_linear_175_198)" fill-opacity="0.6"/>
<path d="M58.2926 579.396H61.3741V580.498H53.3874V579.396H56.9511V567.717L53.5551 569.733L52.9682 568.798L57.1607 566.221H58.2926V579.396Z" fill="url(#paint12_linear_175_198)" fill-opacity="0.6"/>
<path d="M95.9651 328.502C97.4604 328.502 98.5924 329.133 99.361 330.393C100.144 331.64 100.535 333.455 100.535 335.838C100.535 338.221 100.144 340.043 99.361 341.304C98.5924 342.565 97.4604 343.195 95.9651 343.195C94.4838 343.195 93.3518 342.565 92.5692 341.304C91.7866 340.043 91.3953 338.221 91.3953 335.838C91.3953 333.469 91.7866 331.654 92.5692 330.393C93.3518 329.133 94.4838 328.502 95.9651 328.502ZM92.8836 335.838C92.8836 337.529 93.0374 338.852 93.3448 339.808L97.9985 330.601C97.5093 329.95 96.8315 329.624 95.9651 329.624C95.0008 329.624 94.2462 330.137 93.7012 331.162C93.1561 332.174 92.8836 333.732 92.8836 335.838ZM95.9651 342.052C96.9433 342.052 97.705 341.546 98.25 340.535C98.795 339.51 99.0675 337.944 99.0675 335.838C99.0675 334.051 98.8928 332.665 98.5435 331.682L93.8898 340.971C94.3929 341.692 95.0847 342.052 95.9651 342.052Z" fill="url(#paint13_linear_175_198)" fill-opacity="0.6"/>
<path d="M97.2228 365.637H100.304V366.738H92.3176V365.637H95.8812V353.957L92.4853 355.973L91.8984 355.038L96.0909 352.461H97.2228V365.637Z" fill="url(#paint14_linear_175_198)" fill-opacity="0.6"/>
<path d="M95.9651 376.004C97.4604 376.004 98.5924 376.635 99.361 377.895C100.144 379.142 100.535 380.957 100.535 383.34C100.535 385.723 100.144 387.545 99.361 388.806C98.5924 390.067 97.4604 390.697 95.9651 390.697C94.4838 390.697 93.3518 390.067 92.5692 388.806C91.7866 387.545 91.3953 385.723 91.3953 383.34C91.3953 380.971 91.7866 379.156 92.5692 377.895C93.3518 376.635 94.4838 376.004 95.9651 376.004ZM92.8836 383.34C92.8836 385.031 93.0374 386.354 93.3448 387.31L97.9985 378.103C97.5093 377.452 96.8315 377.126 95.9651 377.126C95.0008 377.126 94.2462 377.639 93.7012 378.664C93.1561 379.676 92.8836 381.234 92.8836 383.34ZM95.9651 389.554C96.9433 389.554 97.705 389.049 98.25 388.037C98.795 387.012 99.0675 385.446 99.0675 383.34C99.0675 381.553 98.8928 380.168 98.5435 379.184L93.8898 388.474C94.3929 389.194 95.0847 389.554 95.9651 389.554Z" fill="url(#paint15_linear_175_198)" fill-opacity="0.6"/>
<path d="M95.9651 399.755C97.4604 399.755 98.5924 400.386 99.361 401.646C100.144 402.893 100.535 404.708 100.535 407.091C100.535 409.474 100.144 411.296 99.361 412.557C98.5924 413.818 97.4604 414.448 95.9651 414.448C94.4838 414.448 93.3518 413.818 92.5692 412.557C91.7866 411.296 91.3953 409.474 91.3953 407.091C91.3953 404.722 91.7866 402.907 92.5692 401.646C93.3518 400.386 94.4838 399.755 95.9651 399.755ZM92.8836 407.091C92.8836 408.782 93.0374 410.105 93.3448 411.061L97.9985 401.854C97.5093 401.203 96.8315 400.878 95.9651 400.878C95.0008 400.878 94.2462 401.39 93.7012 402.415C93.1561 403.427 92.8836 404.985 92.8836 407.091ZM95.9651 413.305C96.9433 413.305 97.705 412.8 98.25 411.788C98.795 410.763 99.0675 409.197 99.0675 407.091C99.0675 405.304 98.8928 403.919 98.5435 402.935L93.8898 412.225C94.3929 412.945 95.0847 413.305 95.9651 413.305Z" fill="url(#paint16_linear_175_198)" fill-opacity="0.6"/>
<path d="M97.2228 436.89H100.304V437.992H92.3176V436.89H95.8812V425.21L92.4853 427.226L91.8984 426.291L96.0909 423.714H97.2228V436.89Z" fill="url(#paint17_linear_175_198)" fill-opacity="0.6"/>
<path d="M95.9651 447.257C97.4604 447.257 98.5924 447.888 99.361 449.149C100.144 450.396 100.535 452.211 100.535 454.594C100.535 456.977 100.144 458.798 99.361 460.059C98.5924 461.32 97.4604 461.95 95.9651 461.95C94.4838 461.95 93.3518 461.32 92.5692 460.059C91.7866 458.798 91.3953 456.977 91.3953 454.594C91.3953 452.224 91.7866 450.409 92.5692 449.149C93.3518 447.888 94.4838 447.257 95.9651 447.257ZM92.8836 454.594C92.8836 456.284 93.0374 457.607 93.3448 458.563L97.9985 449.356C97.5093 448.705 96.8315 448.38 95.9651 448.38C95.0008 448.38 94.2462 448.892 93.7012 449.918C93.1561 450.929 92.8836 452.488 92.8836 454.594ZM95.9651 460.807C96.9433 460.807 97.705 460.302 98.25 459.29C98.795 458.265 99.0675 456.699 99.0675 454.594C99.0675 452.806 98.8928 451.421 98.5435 450.437L93.8898 459.727C94.3929 460.447 95.0847 460.807 95.9651 460.807Z" fill="url(#paint18_linear_175_198)" fill-opacity="0.6"/>
<path d="M97.2228 484.392H100.304V485.494H92.3176V484.392H95.8812V472.713L92.4853 474.728L91.8984 473.793L96.0909 471.216H97.2228V484.392Z" fill="url(#paint19_linear_175_198)" fill-opacity="0.6"/>
<path d="M95.9651 494.76C97.4604 494.76 98.5924 495.39 99.361 496.651C100.144 497.898 100.535 499.713 100.535 502.096C100.535 504.479 100.144 506.301 99.361 507.561C98.5924 508.822 97.4604 509.453 95.9651 509.453C94.4838 509.453 93.3518 508.822 92.5692 507.561C91.7866 506.301 91.3953 504.479 91.3953 502.096C91.3953 499.726 91.7866 497.911 92.5692 496.651C93.3518 495.39 94.4838 494.76 95.9651 494.76ZM92.8836 502.096C92.8836 503.786 93.0374 505.109 93.3448 506.065L97.9985 496.859C97.5093 496.207 96.8315 495.882 95.9651 495.882C95.0008 495.882 94.2462 496.394 93.7012 497.42C93.1561 498.431 92.8836 499.99 92.8836 502.096ZM95.9651 508.31C96.9433 508.31 97.705 507.804 98.25 506.792C98.795 505.767 99.0675 504.202 99.0675 502.096C99.0675 500.308 98.8928 498.923 98.5435 497.939L93.8898 507.229C94.3929 507.949 95.0847 508.31 95.9651 508.31Z" fill="url(#paint20_linear_175_198)" fill-opacity="0.6"/>
<path d="M95.9651 518.511C97.4604 518.511 98.5924 519.141 99.361 520.402C100.144 521.649 100.535 523.464 100.535 525.847C100.535 528.23 100.144 530.052 99.361 531.312C98.5924 532.573 97.4604 533.204 95.9651 533.204C94.4838 533.204 93.3518 532.573 92.5692 531.312C91.7866 530.052 91.3953 528.23 91.3953 525.847C91.3953 523.478 91.7866 521.663 92.5692 520.402C93.3518 519.141 94.4838 518.511 95.9651 518.511ZM92.8836 525.847C92.8836 527.537 93.0374 528.86 93.3448 529.816L97.9985 520.61C97.5093 519.958 96.8315 519.633 95.9651 519.633C95.0008 519.633 94.2462 520.145 93.7012 521.171C93.1561 522.182 92.8836 523.741 92.8836 525.847ZM95.9651 532.061C96.9433 532.061 97.705 531.555 98.25 530.543C98.795 529.518 99.0675 527.953 99.0675 525.847C99.0675 524.059 98.8928 522.674 98.5435 521.69L93.8898 530.98C94.3929 531.7 95.0847 532.061 95.9651 532.061Z" fill="url(#paint21_linear_175_198)" fill-opacity="0.6"/>
<path d="M97.2228 555.645H100.304V556.747H92.3176V555.645H95.8812V543.966L92.4853 545.982L91.8984 545.046L96.0909 542.469H97.2228V555.645Z" fill="url(#paint22_linear_175_198)" fill-opacity="0.6"/>
<path d="M95.9651 566.013C97.4604 566.013 98.5924 566.643 99.361 567.904C100.144 569.151 100.535 570.966 100.535 573.349C100.535 575.732 100.144 577.554 99.361 578.815C98.5924 580.075 97.4604 580.706 95.9651 580.706C94.4838 580.706 93.3518 580.075 92.5692 578.815C91.7866 577.554 91.3953 575.732 91.3953 573.349C91.3953 570.98 91.7866 569.165 92.5692 567.904C93.3518 566.643 94.4838 566.013 95.9651 566.013ZM92.8836 573.349C92.8836 575.039 93.0374 576.362 93.3448 577.318L97.9985 568.112C97.5093 567.461 96.8315 567.135 95.9651 567.135C95.0008 567.135 94.2462 567.648 93.7012 568.673C93.1561 569.684 92.8836 571.243 92.8836 573.349ZM95.9651 579.563C96.9433 579.563 97.705 579.057 98.25 578.046C98.795 577.02 99.0675 575.455 99.0675 573.349C99.0675 571.562 98.8928 570.176 98.5435 569.192L93.8898 578.482C94.3929 579.202 95.0847 579.563 95.9651 579.563Z" fill="url(#paint23_linear_175_198)" fill-opacity="0.6"/>
<path d="M97.2228 603.148H100.304V604.249H92.3176V603.148H95.8812V591.468L92.4853 593.484L91.8984 592.549L96.0909 589.972H97.2228V603.148Z" fill="url(#paint24_linear_175_198)" fill-opacity="0.6"/>
<path d="M97.2228 626.899H100.304V628H92.3176V626.899H95.8812V615.219L92.4853 617.235L91.8984 616.3L96.0909 613.723H97.2228V626.899Z" fill="url(#paint25_linear_175_198)" fill-opacity="0.6"/>
<path d="M37.5698 352.253C39.0651 352.253 40.1971 352.884 40.9657 354.144C41.7483 355.391 42.1396 357.206 42.1396 359.589C42.1396 361.972 41.7483 363.794 40.9657 365.055C40.1971 366.316 39.0651 366.946 37.5698 366.946C36.0885 366.946 34.9565 366.316 34.1739 365.055C33.3913 363.794 33 361.972 33 359.589C33 357.22 33.3913 355.405 34.1739 354.144C34.9565 352.884 36.0885 352.253 37.5698 352.253ZM34.4883 359.589C34.4883 361.28 34.6421 362.603 34.9495 363.559L39.6032 354.352C39.114 353.701 38.4363 353.375 37.5698 353.375C36.6055 353.375 35.8509 353.888 35.3059 354.913C34.7608 355.925 34.4883 357.483 34.4883 359.589ZM37.5698 365.803C38.5481 365.803 39.3097 365.297 39.8547 364.286C40.3997 363.261 40.6722 361.695 40.6722 359.589C40.6722 357.802 40.4976 356.417 40.1482 355.433L35.4945 364.722C35.9976 365.443 36.6894 365.803 37.5698 365.803Z" fill="url(#paint26_linear_175_198)" fill-opacity="0.6"/>
<path d="M37.5698 376.004C39.0651 376.004 40.1971 376.635 40.9657 377.895C41.7483 379.142 42.1396 380.957 42.1396 383.34C42.1396 385.723 41.7483 387.545 40.9657 388.806C40.1971 390.067 39.0651 390.697 37.5698 390.697C36.0885 390.697 34.9565 390.067 34.1739 388.806C33.3913 387.545 33 385.723 33 383.34C33 380.971 33.3913 379.156 34.1739 377.895C34.9565 376.635 36.0885 376.004 37.5698 376.004ZM34.4883 383.34C34.4883 385.031 34.6421 386.354 34.9495 387.31L39.6032 378.103C39.114 377.452 38.4363 377.126 37.5698 377.126C36.6055 377.126 35.8509 377.639 35.3059 378.664C34.7608 379.676 34.4883 381.234 34.4883 383.34ZM37.5698 389.554C38.5481 389.554 39.3097 389.049 39.8547 388.037C40.3997 387.012 40.6722 385.446 40.6722 383.34C40.6722 381.553 40.4976 380.168 40.1482 379.184L35.4945 388.474C35.9976 389.194 36.6894 389.554 37.5698 389.554Z" fill="url(#paint27_linear_175_198)" fill-opacity="0.6"/>
<path d="M38.8276 413.139H41.909V414.24H33.9223V413.139H37.486V401.459L34.09 403.475L33.5031 402.54L37.6956 399.963H38.8276V413.139Z" fill="url(#paint28_linear_175_198)" fill-opacity="0.6"/>
<path d="M37.5698 423.506C39.0651 423.506 40.1971 424.137 40.9657 425.398C41.7483 426.644 42.1396 428.459 42.1396 430.842C42.1396 433.225 41.7483 435.047 40.9657 436.308C40.1971 437.569 39.0651 438.199 37.5698 438.199C36.0885 438.199 34.9565 437.569 34.1739 436.308C33.3913 435.047 33 433.225 33 430.842C33 428.473 33.3913 426.658 34.1739 425.398C34.9565 424.137 36.0885 423.506 37.5698 423.506ZM34.4883 430.842C34.4883 432.533 34.6421 433.856 34.9495 434.812L39.6032 425.605C39.114 424.954 38.4363 424.629 37.5698 424.629C36.6055 424.629 35.8509 425.141 35.3059 426.166C34.7608 427.178 34.4883 428.737 34.4883 430.842ZM37.5698 437.056C38.5481 437.056 39.3097 436.551 39.8547 435.539C40.3997 434.514 40.6722 432.948 40.6722 430.842C40.6722 429.055 40.4976 427.67 40.1482 426.686L35.4945 435.976C35.9976 436.696 36.6894 437.056 37.5698 437.056Z" fill="url(#paint29_linear_175_198)" fill-opacity="0.6"/>
<path d="M38.8276 460.641H41.909V461.743H33.9223V460.641H37.486V448.962L34.09 450.977L33.5031 450.042L37.6956 447.465H38.8276V460.641Z" fill="url(#paint30_linear_175_198)" fill-opacity="0.6"/>
<path d="M38.8276 484.392H41.909V485.494H33.9223V484.392H37.486V472.713L34.09 474.728L33.5031 473.793L37.6956 471.216H38.8276V484.392Z" fill="url(#paint31_linear_175_198)" fill-opacity="0.6"/>
<path d="M77.7577 318.135H80.8392V319.236H72.8525V318.135H76.4162V306.455L73.0202 308.471L72.4333 307.536L76.6258 304.959H77.7577V318.135Z" fill="url(#paint32_linear_175_198)" fill-opacity="0.6"/>
<path d="M76.5 328.502C77.9953 328.502 79.1273 329.133 79.8959 330.393C80.6785 331.64 81.0698 333.455 81.0698 335.838C81.0698 338.221 80.6785 340.043 79.8959 341.304C79.1273 342.565 77.9953 343.195 76.5 343.195C75.0187 343.195 73.8867 342.565 73.1041 341.304C72.3215 340.043 71.9302 338.221 71.9302 335.838C71.9302 333.469 72.3215 331.654 73.1041 330.393C73.8867 329.133 75.0187 328.502 76.5 328.502ZM73.4185 335.838C73.4185 337.529 73.5723 338.852 73.8797 339.808L78.5334 330.601C78.0442 329.95 77.3664 329.624 76.5 329.624C75.5357 329.624 74.7811 330.137 74.2361 331.162C73.691 332.174 73.4185 333.732 73.4185 335.838ZM76.5 342.052C77.4782 342.052 78.2399 341.546 78.7849 340.535C79.3299 339.51 79.6024 337.944 79.6024 335.838C79.6024 334.051 79.4277 332.665 79.0784 331.682L74.4247 340.971C74.9278 341.692 75.6196 342.052 76.5 342.052Z" fill="url(#paint33_linear_175_198)" fill-opacity="0.6"/>
<path d="M77.7577 365.637H80.8392V366.738H72.8525V365.637H76.4162V353.957L73.0202 355.973L72.4333 355.038L76.6258 352.461H77.7577V365.637Z" fill="url(#paint34_linear_175_198)" fill-opacity="0.6"/>
<path d="M77.7577 389.388H80.8392V390.489H72.8525V389.388H76.4162V377.708L73.0202 379.724L72.4333 378.789L76.6258 376.212H77.7577V389.388Z" fill="url(#paint35_linear_175_198)" fill-opacity="0.6"/>
<path d="M76.5 399.755C77.9953 399.755 79.1273 400.386 79.8959 401.646C80.6785 402.893 81.0698 404.708 81.0698 407.091C81.0698 409.474 80.6785 411.296 79.8959 412.557C79.1273 413.818 77.9953 414.448 76.5 414.448C75.0187 414.448 73.8867 413.818 73.1041 412.557C72.3215 411.296 71.9302 409.474 71.9302 407.091C71.9302 404.722 72.3215 402.907 73.1041 401.646C73.8867 400.386 75.0187 399.755 76.5 399.755ZM73.4185 407.091C73.4185 408.782 73.5723 410.105 73.8797 411.061L78.5334 401.854C78.0442 401.203 77.3664 400.878 76.5 400.878C75.5357 400.878 74.7811 401.39 74.2361 402.415C73.691 403.427 73.4185 404.985 73.4185 407.091ZM76.5 413.305C77.4782 413.305 78.2399 412.8 78.7849 411.788C79.3299 410.763 79.6024 409.197 79.6024 407.091C79.6024 405.304 79.4277 403.919 79.0784 402.935L74.4247 412.225C74.9278 412.945 75.6196 413.305 76.5 413.305Z" fill="url(#paint36_linear_175_198)" fill-opacity="0.6"/>
<path d="M77.7577 436.89H80.8392V437.992H72.8525V436.89H76.4162V425.21L73.0202 427.226L72.4333 426.291L76.6258 423.714H77.7577V436.89Z" fill="url(#paint37_linear_175_198)" fill-opacity="0.6"/>
<path d="M77.7577 460.641H80.8392V461.743H72.8525V460.641H76.4162V448.962L73.0202 450.977L72.4333 450.042L76.6258 447.465H77.7577V460.641Z" fill="url(#paint38_linear_175_198)" fill-opacity="0.6"/>
<path d="M76.5 471.008C77.9953 471.008 79.1273 471.639 79.8959 472.9C80.6785 474.147 81.0698 475.962 81.0698 478.345C81.0698 480.728 80.6785 482.549 79.8959 483.81C79.1273 485.071 77.9953 485.701 76.5 485.701C75.0187 485.701 73.8867 485.071 73.1041 483.81C72.3215 482.549 71.9302 480.728 71.9302 478.345C71.9302 475.975 72.3215 474.16 73.1041 472.9C73.8867 471.639 75.0187 471.008 76.5 471.008ZM73.4185 478.345C73.4185 480.035 73.5723 481.358 73.8797 482.314L78.5334 473.107C78.0442 472.456 77.3664 472.131 76.5 472.131C75.5357 472.131 74.7811 472.643 74.2361 473.669C73.691 474.68 73.4185 476.239 73.4185 478.345ZM76.5 484.558C77.4782 484.558 78.2399 484.053 78.7849 483.041C79.3299 482.016 79.6024 480.451 79.6024 478.345C79.6024 476.557 79.4277 475.172 79.0784 474.188L74.4247 483.478C74.9278 484.198 75.6196 484.558 76.5 484.558Z" fill="url(#paint39_linear_175_198)" fill-opacity="0.6"/>
<path d="M77.7577 508.143H80.8392V509.245H72.8525V508.143H76.4162V496.464L73.0202 498.48L72.4333 497.544L76.6258 494.967H77.7577V508.143Z" fill="url(#paint40_linear_175_198)" fill-opacity="0.6"/>
<path d="M76.5 518.511C77.9953 518.511 79.1273 519.141 79.8959 520.402C80.6785 521.649 81.0698 523.464 81.0698 525.847C81.0698 528.23 80.6785 530.052 79.8959 531.312C79.1273 532.573 77.9953 533.204 76.5 533.204C75.0187 533.204 73.8867 532.573 73.1041 531.312C72.3215 530.052 71.9302 528.23 71.9302 525.847C71.9302 523.478 72.3215 521.663 73.1041 520.402C73.8867 519.141 75.0187 518.511 76.5 518.511ZM73.4185 525.847C73.4185 527.537 73.5723 528.86 73.8797 529.816L78.5334 520.61C78.0442 519.958 77.3664 519.633 76.5 519.633C75.5357 519.633 74.7811 520.145 74.2361 521.171C73.691 522.182 73.4185 523.741 73.4185 525.847ZM76.5 532.061C77.4782 532.061 78.2399 531.555 78.7849 530.543C79.3299 529.518 79.6024 527.953 79.6024 525.847C79.6024 524.059 79.4277 522.674 79.0784 521.69L74.4247 530.98C74.9278 531.7 75.6196 532.061 76.5 532.061Z" fill="url(#paint41_linear_175_198)" fill-opacity="0.6"/>
<path d="M115.43 304.751C116.926 304.751 118.057 305.381 118.826 306.642C119.609 307.889 120 309.704 120 312.087C120 314.47 119.609 316.292 118.826 317.553C118.057 318.814 116.926 319.444 115.43 319.444C113.949 319.444 112.817 318.814 112.034 317.553C111.252 316.292 110.86 314.47 110.86 312.087C110.86 309.718 111.252 307.903 112.034 306.642C112.817 305.381 113.949 304.751 115.43 304.751ZM112.349 312.087C112.349 313.777 112.502 315.101 112.81 316.057L117.464 306.85C116.974 306.199 116.297 305.873 115.43 305.873C114.466 305.873 113.711 306.386 113.166 307.411C112.621 308.423 112.349 309.981 112.349 312.087ZM115.43 318.301C116.408 318.301 117.17 317.795 117.715 316.784C118.26 315.759 118.533 314.193 118.533 312.087C118.533 310.3 118.358 308.914 118.009 307.931L113.355 317.22C113.858 317.941 114.55 318.301 115.43 318.301Z" fill="url(#paint42_linear_175_198)" fill-opacity="0.6"/>
<path d="M116.688 341.886H119.769V342.987H111.783V341.886H115.346V330.206L111.95 332.222L111.363 331.287L115.556 328.71H116.688V341.886Z" fill="url(#paint43_linear_175_198)" fill-opacity="0.6"/>
<path d="M116.688 365.637H119.769V366.738H111.783V365.637H115.346V353.957L111.95 355.973L111.363 355.038L115.556 352.461H116.688V365.637Z" fill="url(#paint44_linear_175_198)" fill-opacity="0.6"/>
<path d="M115.43 376.004C116.926 376.004 118.057 376.635 118.826 377.895C119.609 379.142 120 380.957 120 383.34C120 385.723 119.609 387.545 118.826 388.806C118.057 390.067 116.926 390.697 115.43 390.697C113.949 390.697 112.817 390.067 112.034 388.806C111.252 387.545 110.86 385.723 110.86 383.34C110.86 380.971 111.252 379.156 112.034 377.895C112.817 376.635 113.949 376.004 115.43 376.004ZM112.349 383.34C112.349 385.031 112.502 386.354 112.81 387.31L117.464 378.103C116.974 377.452 116.297 377.126 115.43 377.126C114.466 377.126 113.711 377.639 113.166 378.664C112.621 379.676 112.349 381.234 112.349 383.34ZM115.43 389.554C116.408 389.554 117.17 389.049 117.715 388.037C118.26 387.012 118.533 385.446 118.533 383.34C118.533 381.553 118.358 380.168 118.009 379.184L113.355 388.474C113.858 389.194 114.55 389.554 115.43 389.554Z" fill="url(#paint45_linear_175_198)" fill-opacity="0.6"/>
<path d="M115.43 399.755C116.926 399.755 118.057 400.386 118.826 401.646C119.609 402.893 120 404.708 120 407.091C120 409.474 119.609 411.296 118.826 412.557C118.057 413.818 116.926 414.448 115.43 414.448C113.949 414.448 112.817 413.818 112.034 412.557C111.252 411.296 110.86 409.474 110.86 407.091C110.86 404.722 111.252 402.907 112.034 401.646C112.817 400.386 113.949 399.755 115.43 399.755ZM112.349 407.091C112.349 408.782 112.502 410.105 112.81 411.061L117.464 401.854C116.974 401.203 116.297 400.878 115.43 400.878C114.466 400.878 113.711 401.39 113.166 402.415C112.621 403.427 112.349 404.985 112.349 407.091ZM115.43 413.305C116.408 413.305 117.17 412.8 117.715 411.788C118.26 410.763 118.533 409.197 118.533 407.091C118.533 405.304 118.358 403.919 118.009 402.935L113.355 412.225C113.858 412.945 114.55 413.305 115.43 413.305Z" fill="url(#paint46_linear_175_198)" fill-opacity="0.6"/>
<g opacity="0.6">
<path d="M943.93 -19C945.356 -19 946.436 -18.395 947.17 -17.1851C947.916 -15.9885 948.29 -14.2468 948.29 -11.9599C948.29 -9.67299 947.916 -7.9246 947.17 -6.71468C946.436 -5.50476 945.356 -4.8998 943.93 -4.8998C942.517 -4.8998 941.437 -5.50476 940.69 -6.71468C939.943 -7.9246 939.57 -9.67299 939.57 -11.9599C939.57 -14.2335 939.943 -15.9752 940.69 -17.1851C941.437 -18.395 942.517 -19 943.93 -19ZM940.99 -11.9599C940.99 -10.3378 941.137 -9.06804 941.43 -8.15063L945.87 -16.9857C945.403 -17.6106 944.756 -17.923 943.93 -17.923C943.01 -17.923 942.29 -17.4311 941.77 -16.4472C941.25 -15.4766 940.99 -13.9808 940.99 -11.9599ZM943.93 -5.99671C944.863 -5.99671 945.59 -6.482 946.11 -7.4526C946.63 -8.43649 946.89 -9.93891 946.89 -11.9599C946.89 -13.675 946.723 -15.0046 946.39 -15.9486L941.95 -7.03378C942.43 -6.3424 943.09 -5.99671 943.93 -5.99671Z" fill="url(#paint47_linear_175_198)"/>
<path d="M945.13 16.6365H948.07V17.6936H940.45V16.6365H943.85V5.42819L940.61 7.36273L940.05 6.46526L944.05 3.99224H945.13V16.6365Z" fill="url(#paint48_linear_175_198)"/>
<path d="M943.93 26.5856C945.356 26.5856 946.436 27.1906 947.17 28.4005C947.916 29.5971 948.29 31.3389 948.29 33.6257C948.29 35.9126 947.916 37.661 947.17 38.8709C946.436 40.0808 945.356 40.6858 943.93 40.6858C942.517 40.6858 941.437 40.0808 940.69 38.8709C939.943 37.661 939.57 35.9126 939.57 33.6257C939.57 31.3522 939.943 29.6104 940.69 28.4005C941.437 27.1906 942.517 26.5856 943.93 26.5856ZM940.99 33.6257C940.99 35.2478 941.137 36.5176 941.43 37.435L945.87 28.5999C945.403 27.975 944.756 27.6626 943.93 27.6626C943.01 27.6626 942.29 28.1545 941.77 29.1384C941.25 30.109 940.99 31.6048 940.99 33.6257ZM943.93 39.5889C944.863 39.5889 945.59 39.1036 946.11 38.133C946.63 37.1491 946.89 35.6467 946.89 33.6257C946.89 31.9106 946.723 30.581 946.39 29.637L941.95 38.5518C942.43 39.2432 943.09 39.5889 943.93 39.5889Z" fill="url(#paint49_linear_175_198)"/>
<path d="M945.13 62.2221H948.07V63.2792H940.45V62.2221H943.85V51.0138L940.61 52.9483L940.05 52.0509L944.05 49.5778H945.13V62.2221Z" fill="url(#paint50_linear_175_198)"/>
<path d="M945.13 85.015H948.07V86.072H940.45V85.015H943.85V73.8066L940.61 75.7411L940.05 74.8437L944.05 72.3706H945.13V85.015Z" fill="url(#paint51_linear_175_198)"/>
<path d="M943.93 94.964C945.356 94.964 946.436 95.569 947.17 96.7789C947.916 97.9755 948.29 99.7173 948.29 102.004C948.29 104.291 947.916 106.039 947.17 107.249C946.436 108.459 945.356 109.064 943.93 109.064C942.517 109.064 941.437 108.459 940.69 107.249C939.943 106.039 939.57 104.291 939.57 102.004C939.57 99.7306 939.943 97.9888 940.69 96.7789C941.437 95.569 942.517 94.964 943.93 94.964ZM940.99 102.004C940.99 103.626 941.137 104.896 941.43 105.813L945.87 96.9783C945.403 96.3534 944.756 96.041 943.93 96.041C943.01 96.041 942.29 96.5329 941.77 97.5168C941.25 98.4874 940.99 99.9832 940.99 102.004ZM943.93 107.967C944.863 107.967 945.59 107.482 946.11 106.511C946.63 105.528 946.89 104.025 946.89 102.004C946.89 100.289 946.723 98.9594 946.39 98.0154L941.95 106.93C942.43 107.622 943.09 107.967 943.93 107.967Z" fill="url(#paint52_linear_175_198)"/>
<path d="M945.13 130.601H948.07V131.658H940.45V130.601H943.85V119.392L940.61 121.327L940.05 120.429L944.05 117.956H945.13V130.601Z" fill="url(#paint53_linear_175_198)"/>
<path d="M943.93 140.55C945.356 140.55 946.436 141.155 947.17 142.365C947.916 143.561 948.29 145.303 948.29 147.59C948.29 149.877 947.916 151.625 947.17 152.835C946.436 154.045 945.356 154.65 943.93 154.65C942.517 154.65 941.437 154.045 940.69 152.835C939.943 151.625 939.57 149.877 939.57 147.59C939.57 145.316 939.943 143.574 940.69 142.365C941.437 141.155 942.517 140.55 943.93 140.55ZM940.99 147.59C940.99 149.212 941.137 150.482 941.43 151.399L945.87 142.564C945.403 141.939 944.756 141.627 943.93 141.627C943.01 141.627 942.29 142.119 941.77 143.102C941.25 144.073 940.99 145.569 940.99 147.59ZM943.93 153.553C944.863 153.553 945.59 153.068 946.11 152.097C946.63 151.113 946.89 149.611 946.89 147.59C946.89 145.875 946.723 144.545 946.39 143.601L941.95 152.516C942.43 153.207 943.09 153.553 943.93 153.553Z" fill="url(#paint54_linear_175_198)"/>
<path d="M943.93 163.342C945.356 163.342 946.436 163.947 947.17 165.157C947.916 166.354 948.29 168.096 948.29 170.383C948.29 172.669 947.916 174.418 947.17 175.628C946.436 176.838 945.356 177.443 943.93 177.443C942.517 177.443 941.437 176.838 940.69 175.628C939.943 174.418 939.57 172.669 939.57 170.383C939.57 168.109 939.943 166.367 940.69 165.157C941.437 163.947 942.517 163.342 943.93 163.342ZM940.99 170.383C940.99 172.005 941.137 173.274 941.43 174.192L945.87 165.357C945.403 164.732 944.756 164.419 943.93 164.419C943.01 164.419 942.29 164.911 941.77 165.895C941.25 166.866 940.99 168.362 940.99 170.383ZM943.93 176.346C944.863 176.346 945.59 175.86 946.11 174.89C946.63 173.906 946.89 172.404 946.89 170.383C946.89 168.667 946.723 167.338 946.39 166.394L941.95 175.309C942.43 176 943.09 176.346 943.93 176.346Z" fill="url(#paint55_linear_175_198)"/>
<path d="M945.13 198.979H948.07V200.036H940.45V198.979H943.85V187.771L940.61 189.705L940.05 188.808L944.05 186.335H945.13V198.979Z" fill="url(#paint56_linear_175_198)"/>
<path d="M943.93 208.928C945.356 208.928 946.436 209.533 947.17 210.743C947.916 211.94 948.29 213.681 948.29 215.968C948.29 218.255 947.916 220.003 947.17 221.213C946.436 222.423 945.356 223.028 943.93 223.028C942.517 223.028 941.437 222.423 940.69 221.213C939.943 220.003 939.57 218.255 939.57 215.968C939.57 213.695 939.943 211.953 940.69 210.743C941.437 209.533 942.517 208.928 943.93 208.928ZM940.99 215.968C940.99 217.59 941.137 218.86 941.43 219.777L945.87 210.942C945.403 210.317 944.756 210.005 943.93 210.005C943.01 210.005 942.29 210.497 941.77 211.481C941.25 212.451 940.99 213.947 940.99 215.968ZM943.93 221.931C944.863 221.931 945.59 221.446 946.11 220.475C946.63 219.492 946.89 217.989 946.89 215.968C946.89 214.253 946.723 212.923 946.39 211.979L941.95 220.894C942.43 221.586 943.09 221.931 943.93 221.931Z" fill="url(#paint57_linear_175_198)"/>
<path d="M945.13 244.565H948.07V245.622H940.45V244.565H943.85V233.356L940.61 235.291L940.05 234.393L944.05 231.92H945.13V244.565Z" fill="url(#paint58_linear_175_198)"/>
<path d="M945.13 267.357H948.07V268.414H940.45V267.357H943.85V256.149L940.61 258.084L940.05 257.186L944.05 254.713H945.13V267.357Z" fill="url(#paint59_linear_175_198)"/>
<path d="M981.07 26.5856C982.497 26.5856 983.577 27.1906 984.31 28.4005C985.057 29.5971 985.43 31.3389 985.43 33.6257C985.43 35.9126 985.057 37.661 984.31 38.8709C983.577 40.0808 982.497 40.6858 981.07 40.6858C979.657 40.6858 978.577 40.0808 977.83 38.8709C977.084 37.661 976.71 35.9126 976.71 33.6257C976.71 31.3522 977.084 29.6104 977.83 28.4005C978.577 27.1906 979.657 26.5856 981.07 26.5856ZM978.13 33.6257C978.13 35.2478 978.277 36.5176 978.57 37.435L983.01 28.5999C982.543 27.975 981.897 27.6626 981.07 27.6626C980.15 27.6626 979.43 28.1545 978.91 29.1384C978.39 30.109 978.13 31.6048 978.13 33.6257ZM981.07 39.5889C982.003 39.5889 982.73 39.1036 983.25 38.133C983.77 37.1491 984.03 35.6467 984.03 33.6257C984.03 31.9106 983.863 30.581 983.53 29.637L979.09 38.5518C979.57 39.2432 980.23 39.5889 981.07 39.5889Z" fill="url(#paint60_linear_175_198)"/>
<path d="M982.27 62.2221H985.21V63.2792H977.59V62.2221H980.99V51.0138L977.75 52.9483L977.19 52.0509L981.19 49.5778H982.27V62.2221Z" fill="url(#paint61_linear_175_198)"/>
<path d="M981.07 72.1712C982.497 72.1712 983.577 72.7762 984.31 73.9861C985.057 75.1827 985.43 76.9245 985.43 79.2113C985.43 81.4982 985.057 83.2466 984.31 84.4565C983.577 85.6664 982.497 86.2714 981.07 86.2714C979.657 86.2714 978.577 85.6664 977.83 84.4565C977.084 83.2466 976.71 81.4982 976.71 79.2113C976.71 76.9378 977.084 75.196 977.83 73.9861C978.577 72.7762 979.657 72.1712 981.07 72.1712ZM978.13 79.2113C978.13 80.8334 978.277 82.1032 978.57 83.0206L983.01 74.1855C982.543 73.5606 981.897 73.2482 981.07 73.2482C980.15 73.2482 979.43 73.7401 978.91 74.724C978.39 75.6946 978.13 77.1904 978.13 79.2113ZM981.07 85.1745C982.003 85.1745 982.73 84.6892 983.25 83.7186C983.77 82.7347 984.03 81.2323 984.03 79.2113C984.03 77.4962 983.863 76.1666 983.53 75.2226L979.09 84.1374C979.57 84.8288 980.23 85.1745 981.07 85.1745Z" fill="url(#paint62_linear_175_198)"/>
<path d="M981.07 94.964C982.497 94.964 983.577 95.569 984.31 96.7789C985.057 97.9755 985.43 99.7173 985.43 102.004C985.43 104.291 985.057 106.039 984.31 107.249C983.577 108.459 982.497 109.064 981.07 109.064C979.657 109.064 978.577 108.459 977.83 107.249C977.084 106.039 976.71 104.291 976.71 102.004C976.71 99.7306 977.084 97.9888 977.83 96.7789C978.577 95.569 979.657 94.964 981.07 94.964ZM978.13 102.004C978.13 103.626 978.277 104.896 978.57 105.813L983.01 96.9783C982.543 96.3534 981.897 96.041 981.07 96.041C980.15 96.041 979.43 96.5329 978.91 97.5168C978.39 98.4874 978.13 99.9832 978.13 102.004ZM981.07 107.967C982.003 107.967 982.73 107.482 983.25 106.511C983.77 105.528 984.03 104.025 984.03 102.004C984.03 100.289 983.863 98.9594 983.53 98.0154L979.09 106.93C979.57 107.622 980.23 107.967 981.07 107.967Z" fill="url(#paint63_linear_175_198)"/>
<path d="M982.27 130.601H985.21V131.658H977.59V130.601H980.99V119.392L977.75 121.327L977.19 120.429L981.19 117.956H982.27V130.601Z" fill="url(#paint64_linear_175_198)"/>
<path d="M981.07 140.55C982.497 140.55 983.577 141.155 984.31 142.365C985.057 143.561 985.43 145.303 985.43 147.59C985.43 149.877 985.057 151.625 984.31 152.835C983.577 154.045 982.497 154.65 981.07 154.65C979.657 154.65 978.577 154.045 977.83 152.835C977.084 151.625 976.71 149.877 976.71 147.59C976.71 145.316 977.084 143.574 977.83 142.365C978.577 141.155 979.657 140.55 981.07 140.55ZM978.13 147.59C978.13 149.212 978.277 150.482 978.57 151.399L983.01 142.564C982.543 141.939 981.897 141.627 981.07 141.627C980.15 141.627 979.43 142.119 978.91 143.102C978.39 144.073 978.13 145.569 978.13 147.59ZM981.07 153.553C982.003 153.553 982.73 153.068 983.25 152.097C983.77 151.113 984.03 149.611 984.03 147.59C984.03 145.875 983.863 144.545 983.53 143.601L979.09 152.516C979.57 153.207 980.23 153.553 981.07 153.553Z" fill="url(#paint65_linear_175_198)"/>
<path d="M982.27 176.186H985.21V177.243H977.59V176.186H980.99V164.978L977.75 166.912L977.19 166.015L981.19 163.542H982.27V176.186Z" fill="url(#paint66_linear_175_198)"/>
<path d="M981.07 186.135C982.497 186.135 983.577 186.74 984.31 187.95C985.057 189.147 985.43 190.888 985.43 193.175C985.43 195.462 985.057 197.211 984.31 198.421C983.577 199.63 982.497 200.235 981.07 200.235C979.657 200.235 978.577 199.63 977.83 198.421C977.084 197.211 976.71 195.462 976.71 193.175C976.71 190.902 977.084 189.16 977.83 187.95C978.577 186.74 979.657 186.135 981.07 186.135ZM978.13 193.175C978.13 194.797 978.277 196.067 978.57 196.985L983.01 188.15C982.543 187.525 981.897 187.212 981.07 187.212C980.15 187.212 979.43 187.704 978.91 188.688C978.39 189.659 978.13 191.154 978.13 193.175ZM981.07 199.139C982.003 199.139 982.73 198.653 983.25 197.683C983.77 196.699 984.03 195.196 984.03 193.175C984.03 191.46 983.863 190.131 983.53 189.187L979.09 198.101C979.57 198.793 980.23 199.139 981.07 199.139Z" fill="url(#paint67_linear_175_198)"/>
<path d="M981.07 208.928C982.497 208.928 983.577 209.533 984.31 210.743C985.057 211.94 985.43 213.681 985.43 215.968C985.43 218.255 985.057 220.003 984.31 221.213C983.577 222.423 982.497 223.028 981.07 223.028C979.657 223.028 978.577 222.423 977.83 221.213C977.084 220.003 976.71 218.255 976.71 215.968C976.71 213.695 977.084 211.953 977.83 210.743C978.577 209.533 979.657 208.928 981.07 208.928ZM978.13 215.968C978.13 217.59 978.277 218.86 978.57 219.777L983.01 210.942C982.543 210.317 981.897 210.005 981.07 210.005C980.15 210.005 979.43 210.497 978.91 211.481C978.39 212.451 978.13 213.947 978.13 215.968ZM981.07 221.931C982.003 221.931 982.73 221.446 983.25 220.475C983.77 219.492 984.03 217.989 984.03 215.968C984.03 214.253 983.863 212.923 983.53 211.979L979.09 220.894C979.57 221.586 980.23 221.931 981.07 221.931Z" fill="url(#paint68_linear_175_198)"/>
<path d="M982.27 244.565H985.21V245.622H977.59V244.565H980.99V233.356L977.75 235.291L977.19 234.393L981.19 231.92H982.27V244.565Z" fill="url(#paint69_linear_175_198)"/>
<path d="M981.07 254.514C982.497 254.514 983.577 255.119 984.31 256.329C985.057 257.525 985.43 259.267 985.43 261.554C985.43 263.841 985.057 265.589 984.31 266.799C983.577 268.009 982.497 268.614 981.07 268.614C979.657 268.614 978.577 268.009 977.83 266.799C977.084 265.589 976.71 263.841 976.71 261.554C976.71 259.28 977.084 257.538 977.83 256.329C978.577 255.119 979.657 254.514 981.07 254.514ZM978.13 261.554C978.13 263.176 978.277 264.446 978.57 265.363L983.01 256.528C982.543 255.903 981.897 255.591 981.07 255.591C980.15 255.591 979.43 256.083 978.91 257.066C978.39 258.037 978.13 259.533 978.13 261.554ZM981.07 267.517C982.003 267.517 982.73 267.032 983.25 266.061C983.77 265.077 984.03 263.575 984.03 261.554C984.03 259.839 983.863 258.509 983.53 257.565L979.09 266.48C979.57 267.171 980.23 267.517 981.07 267.517Z" fill="url(#paint70_linear_175_198)"/>
<path d="M982.27 290.15H985.21V291.207H977.59V290.15H980.99V278.942L977.75 280.876L977.19 279.979L981.19 277.506H982.27V290.15Z" fill="url(#paint71_linear_175_198)"/>
<path d="M982.27 312.943H985.21V314H977.59V312.943H980.99V301.735L977.75 303.669L977.19 302.772L981.19 300.299H982.27V312.943Z" fill="url(#paint72_linear_175_198)"/>
<path d="M925.36 49.3784C926.786 49.3784 927.866 49.9834 928.599 51.1933C929.346 52.3899 929.719 54.1317 929.719 56.4185C929.719 58.7054 929.346 60.4538 928.599 61.6637C927.866 62.8736 926.786 63.4786 925.36 63.4786C923.946 63.4786 922.867 62.8736 922.12 61.6637C921.373 60.4538 921 58.7054 921 56.4185C921 54.145 921.373 52.4032 922.12 51.1933C922.867 49.9834 923.946 49.3784 925.36 49.3784ZM922.42 56.4185C922.42 58.0406 922.567 59.3104 922.86 60.2278L927.3 51.3927C926.833 50.7678 926.186 50.4554 925.36 50.4554C924.44 50.4554 923.72 50.9473 923.2 51.9312C922.68 52.9018 922.42 54.3976 922.42 56.4185ZM925.36 62.3817C926.293 62.3817 927.02 61.8964 927.54 60.9258C928.06 59.9419 928.319 58.4395 928.319 56.4185C928.319 54.7034 928.153 53.3738 927.82 52.4298L923.38 61.3446C923.86 62.036 924.52 62.3817 925.36 62.3817Z" fill="url(#paint73_linear_175_198)"/>
<path d="M925.36 72.1712C926.786 72.1712 927.866 72.7762 928.599 73.9861C929.346 75.1827 929.719 76.9245 929.719 79.2113C929.719 81.4982 929.346 83.2466 928.599 84.4565C927.866 85.6664 926.786 86.2714 925.36 86.2714C923.946 86.2714 922.867 85.6664 922.12 84.4565C921.373 83.2466 921 81.4982 921 79.2113C921 76.9378 921.373 75.196 922.12 73.9861C922.867 72.7762 923.946 72.1712 925.36 72.1712ZM922.42 79.2113C922.42 80.8334 922.567 82.1032 922.86 83.0206L927.3 74.1855C926.833 73.5606 926.186 73.2482 925.36 73.2482C924.44 73.2482 923.72 73.7401 923.2 74.724C922.68 75.6946 922.42 77.1904 922.42 79.2113ZM925.36 85.1745C926.293 85.1745 927.02 84.6892 927.54 83.7186C928.06 82.7347 928.319 81.2323 928.319 79.2113C928.319 77.4962 928.153 76.1666 927.82 75.2226L923.38 84.1374C923.86 84.8288 924.52 85.1745 925.36 85.1745Z" fill="url(#paint74_linear_175_198)"/>
<path d="M926.56 107.808H929.499V108.865H921.88V107.808H925.28V96.5994L922.04 98.5339L921.48 97.6365L925.48 95.1635H926.56V107.808Z" fill="url(#paint75_linear_175_198)"/>
<path d="M925.36 117.757C926.786 117.757 927.866 118.362 928.599 119.572C929.346 120.768 929.719 122.51 929.719 124.797C929.719 127.084 929.346 128.832 928.599 130.042C927.866 131.252 926.786 131.857 925.36 131.857C923.946 131.857 922.867 131.252 922.12 130.042C921.373 128.832 921 127.084 921 124.797C921 122.523 921.373 120.782 922.12 119.572C922.867 118.362 923.946 117.757 925.36 117.757ZM922.42 124.797C922.42 126.419 922.567 127.689 922.86 128.606L927.3 119.771C926.833 119.146 926.186 118.834 925.36 118.834C924.44 118.834 923.72 119.326 923.2 120.31C922.68 121.28 922.42 122.776 922.42 124.797ZM925.36 130.76C926.293 130.76 927.02 130.275 927.54 129.304C928.06 128.32 928.319 126.818 928.319 124.797C928.319 123.082 928.153 121.752 927.82 120.808L923.38 129.723C923.86 130.414 924.52 130.76 925.36 130.76Z" fill="url(#paint76_linear_175_198)"/>
<path d="M926.56 153.393H929.499V154.45H921.88V153.393H925.28V142.185L922.04 144.12L921.48 143.222L925.48 140.749H926.56V153.393Z" fill="url(#paint77_linear_175_198)"/>
<path d="M926.56 176.186H929.499V177.243H921.88V176.186H925.28V164.978L922.04 166.912L921.48 166.015L925.48 163.542H926.56V176.186Z" fill="url(#paint78_linear_175_198)"/>
<path d="M963.7 16.6365H966.64V17.6936H959.02V16.6365H962.42V5.42819L959.18 7.36273L958.62 6.46526L962.62 3.99224H963.7V16.6365Z" fill="url(#paint79_linear_175_198)"/>
<path d="M962.5 26.5856C963.927 26.5856 965.006 27.1906 965.74 28.4005C966.486 29.5971 966.86 31.3389 966.86 33.6257C966.86 35.9126 966.486 37.661 965.74 38.8709C965.006 40.0808 963.927 40.6858 962.5 40.6858C961.087 40.6858 960.007 40.0808 959.26 38.8709C958.514 37.661 958.14 35.9126 958.14 33.6257C958.14 31.3522 958.514 29.6104 959.26 28.4005C960.007 27.1906 961.087 26.5856 962.5 26.5856ZM959.56 33.6257C959.56 35.2478 959.707 36.5176 960 37.435L964.44 28.5999C963.973 27.975 963.327 27.6626 962.5 27.6626C961.58 27.6626 960.86 28.1545 960.34 29.1384C959.82 30.109 959.56 31.6048 959.56 33.6257ZM962.5 39.5889C963.433 39.5889 964.16 39.1036 964.68 38.133C965.2 37.1491 965.46 35.6467 965.46 33.6257C965.46 31.9106 965.293 30.581 964.96 29.637L960.52 38.5518C961 39.2432 961.66 39.5889 962.5 39.5889Z" fill="url(#paint80_linear_175_198)"/>
<path d="M963.7 62.2221H966.64V63.2792H959.02V62.2221H962.42V51.0138L959.18 52.9483L958.62 52.0509L962.62 49.5778H963.7V62.2221Z" fill="url(#paint81_linear_175_198)"/>
<path d="M963.7 85.015H966.64V86.072H959.02V85.015H962.42V73.8066L959.18 75.7411L958.62 74.8437L962.62 72.3706H963.7V85.015Z" fill="url(#paint82_linear_175_198)"/>
<path d="M962.5 94.964C963.927 94.964 965.006 95.569 965.74 96.7789C966.486 97.9755 966.86 99.7173 966.86 102.004C966.86 104.291 966.486 106.039 965.74 107.249C965.006 108.459 963.927 109.064 962.5 109.064C961.087 109.064 960.007 108.459 959.26 107.249C958.514 106.039 958.14 104.291 958.14 102.004C958.14 99.7306 958.514 97.9888 959.26 96.7789C960.007 95.569 961.087 94.964 962.5 94.964ZM959.56 102.004C959.56 103.626 959.707 104.896 960 105.813L964.44 96.9783C963.973 96.3534 963.327 96.041 962.5 96.041C961.58 96.041 960.86 96.5329 960.34 97.5168C959.82 98.4874 959.56 99.9832 959.56 102.004ZM962.5 107.967C963.433 107.967 964.16 107.482 964.68 106.511C965.2 105.528 965.46 104.025 965.46 102.004C965.46 100.289 965.293 98.9594 964.96 98.0154L960.52 106.93C961 107.622 961.66 107.967 962.5 107.967Z" fill="url(#paint83_linear_175_198)"/>
<path d="M963.7 130.601H966.64V131.658H959.02V130.601H962.42V119.392L959.18 121.327L958.62 120.429L962.62 117.956H963.7V130.601Z" fill="url(#paint84_linear_175_198)"/>
<path d="M963.7 153.393H966.64V154.45H959.02V153.393H962.42V142.185L959.18 144.12L958.62 143.222L962.62 140.749H963.7V153.393Z" fill="url(#paint85_linear_175_198)"/>
<path d="M962.5 163.342C963.927 163.342 965.006 163.947 965.74 165.157C966.486 166.354 966.86 168.096 966.86 170.383C966.86 172.669 966.486 174.418 965.74 175.628C965.006 176.838 963.927 177.443 962.5 177.443C961.087 177.443 960.007 176.838 959.26 175.628C958.514 174.418 958.14 172.669 958.14 170.383C958.14 168.109 958.514 166.367 959.26 165.157C960.007 163.947 961.087 163.342 962.5 163.342ZM959.56 170.383C959.56 172.005 959.707 173.274 960 174.192L964.44 165.357C963.973 164.732 963.327 164.419 962.5 164.419C961.58 164.419 960.86 164.911 960.34 165.895C959.82 166.866 959.56 168.362 959.56 170.383ZM962.5 176.346C963.433 176.346 964.16 175.86 964.68 174.89C965.2 173.906 965.46 172.404 965.46 170.383C965.46 168.667 965.293 167.338 964.96 166.394L960.52 175.309C961 176 961.66 176.346 962.5 176.346Z" fill="url(#paint86_linear_175_198)"/>
<path d="M963.7 198.979H966.64V200.036H959.02V198.979H962.42V187.771L959.18 189.705L958.62 188.808L962.62 186.335H963.7V198.979Z" fill="url(#paint87_linear_175_198)"/>
<path d="M962.5 208.928C963.927 208.928 965.006 209.533 965.74 210.743C966.486 211.94 966.86 213.681 966.86 215.968C966.86 218.255 966.486 220.003 965.74 221.213C965.006 222.423 963.927 223.028 962.5 223.028C961.087 223.028 960.007 222.423 959.26 221.213C958.514 220.003 958.14 218.255 958.14 215.968C958.14 213.695 958.514 211.953 959.26 210.743C960.007 209.533 961.087 208.928 962.5 208.928ZM959.56 215.968C959.56 217.59 959.707 218.86 960 219.777L964.44 210.942C963.973 210.317 963.327 210.005 962.5 210.005C961.58 210.005 960.86 210.497 960.34 211.481C959.82 212.451 959.56 213.947 959.56 215.968ZM962.5 221.931C963.433 221.931 964.16 221.446 964.68 220.475C965.2 219.492 965.46 217.989 965.46 215.968C965.46 214.253 965.293 212.923 964.96 211.979L960.52 220.894C961 221.586 961.66 221.931 962.5 221.931Z" fill="url(#paint88_linear_175_198)"/>
<path d="M999.64 3.7928C1001.07 3.7928 1002.15 4.39776 1002.88 5.60768C1003.63 6.8043 1004 8.54605 1004 10.8329C1004 13.1198 1003.63 14.8682 1002.88 16.0781C1002.15 17.288 1001.07 17.893 999.64 17.893C998.227 17.893 997.147 17.288 996.401 16.0781C995.654 14.8682 995.281 13.1198 995.281 10.8329C995.281 8.55935 995.654 6.8176 996.401 5.60768C997.147 4.39776 998.227 3.7928 999.64 3.7928ZM996.7 10.8329C996.7 12.455 996.847 13.7248 997.14 14.6422L1001.58 5.80712C1001.11 5.18221 1000.47 4.86976 999.64 4.86976C998.72 4.86976 998 5.36171 997.48 6.3456C996.96 7.31619 996.7 8.81197 996.7 10.8329ZM999.64 16.7961C1000.57 16.7961 1001.3 16.3108 1001.82 15.3402C1002.34 14.3563 1002.6 12.8539 1002.6 10.8329C1002.6 9.11777 1002.43 7.78819 1002.1 6.84419L997.66 15.759C998.14 16.4504 998.8 16.7961 999.64 16.7961Z" fill="url(#paint89_linear_175_198)"/>
<path d="M1000.84 39.4293H1003.78V40.4864H996.161V39.4293H999.56V28.221L996.321 30.1555L995.761 29.2581L999.76 26.785H1000.84V39.4293Z" fill="url(#paint90_linear_175_198)"/>
<path d="M1000.84 62.2221H1003.78V63.2792H996.161V62.2221H999.56V51.0138L996.321 52.9483L995.761 52.0509L999.76 49.5778H1000.84V62.2221Z" fill="url(#paint91_linear_175_198)"/>
<path d="M999.64 72.1712C1001.07 72.1712 1002.15 72.7762 1002.88 73.9861C1003.63 75.1827 1004 76.9245 1004 79.2113C1004 81.4982 1003.63 83.2466 1002.88 84.4565C1002.15 85.6664 1001.07 86.2714 999.64 86.2714C998.227 86.2714 997.147 85.6664 996.401 84.4565C995.654 83.2466 995.281 81.4982 995.281 79.2113C995.281 76.9378 995.654 75.196 996.401 73.9861C997.147 72.7762 998.227 72.1712 999.64 72.1712ZM996.7 79.2113C996.7 80.8334 996.847 82.1032 997.14 83.0206L1001.58 74.1855C1001.11 73.5606 1000.47 73.2482 999.64 73.2482C998.72 73.2482 998 73.7401 997.48 74.724C996.96 75.6946 996.7 77.1904 996.7 79.2113ZM999.64 85.1745C1000.57 85.1745 1001.3 84.6892 1001.82 83.7186C1002.34 82.7347 1002.6 81.2323 1002.6 79.2113C1002.6 77.4962 1002.43 76.1666 1002.1 75.2226L997.66 84.1374C998.14 84.8288 998.8 85.1745 999.64 85.1745Z" fill="url(#paint92_linear_175_198)"/>
<path d="M999.64 94.964C1001.07 94.964 1002.15 95.569 1002.88 96.7789C1003.63 97.9755 1004 99.7173 1004 102.004C1004 104.291 1003.63 106.039 1002.88 107.249C1002.15 108.459 1001.07 109.064 999.64 109.064C998.227 109.064 997.147 108.459 996.401 107.249C995.654 106.039 995.281 104.291 995.281 102.004C995.281 99.7306 995.654 97.9888 996.401 96.7789C997.147 95.569 998.227 94.964 999.64 94.964ZM996.7 102.004C996.7 103.626 996.847 104.896 997.14 105.813L1001.58 96.9783C1001.11 96.3534 1000.47 96.041 999.64 96.041C998.72 96.041 998 96.5329 997.48 97.5168C996.96 98.4874 996.7 99.9832 996.7 102.004ZM999.64 107.967C1000.57 107.967 1001.3 107.482 1001.82 106.511C1002.34 105.528 1002.6 104.025 1002.6 102.004C1002.6 100.289 1002.43 98.9594 1002.1 98.0154L997.66 106.93C998.14 107.622 998.8 107.967 999.64 107.967Z" fill="url(#paint93_linear_175_198)"/>
</g>
<defs>
<filter id="filter0_f_175_198" x="-534.19" y="-705.19" width="2141.38" height="1500.38" filterUnits="userSpaceOnUse" color-interpolation-filters="sRGB">
<feFlood flood-opacity="0" result="BackgroundImageFix"/>
<feBlend mode="normal" in="SourceGraphic" in2="BackgroundImageFix" result="shape"/>
<feGaussianBlur stdDeviation="200.095" result="effect1_foregroundBlur_175_198"/>
</filter>
<linearGradient id="paint0_linear_175_198" x1="76.5" y1="281" x2="76.5" y2="592.381" gradientUnits="userSpaceOnUse">
<stop stop-color="#F7DD43"/>
<stop offset="1" stop-color="#F7DD43" stop-opacity="0"/>
</linearGradient>
<linearGradient id="paint1_linear_175_198" x1="76.5" y1="281" x2="76.5" y2="592.381" gradientUnits="userSpaceOnUse">
<stop stop-color="#F7DD43"/>
<stop offset="1" stop-color="#F7DD43" stop-opacity="0"/>
</linearGradient>
<linearGradient id="paint2_linear_175_198" x1="76.5" y1="281" x2="76.5" y2="592.381" gradientUnits="userSpaceOnUse">
<stop stop-color="#F7DD43"/>
<stop offset="1" stop-color="#F7DD43" stop-opacity="0"/>
</linearGradient>
<linearGradient id="paint3_linear_175_198" x1="76.5" y1="281" x2="76.5" y2="592.381" gradientUnits="userSpaceOnUse">
<stop stop-color="#F7DD43"/>
<stop offset="1" stop-color="#F7DD43" stop-opacity="0"/>
</linearGradient>
<linearGradient id="paint4_linear_175_198" x1="76.5" y1="281" x2="76.5" y2="592.381" gradientUnits="userSpaceOnUse">
<stop stop-color="#F7DD43"/>
<stop offset="1" stop-color="#F7DD43" stop-opacity="0"/>
</linearGradient>
<linearGradient id="paint5_linear_175_198" x1="76.5" y1="281" x2="76.5" y2="592.381" gradientUnits="userSpaceOnUse">
<stop stop-color="#F7DD43"/>
<stop offset="1" stop-color="#F7DD43" stop-opacity="0"/>
</linearGradient>
<linearGradient id="paint6_linear_175_198" x1="76.5" y1="281" x2="76.5" y2="592.381" gradientUnits="userSpaceOnUse">
<stop stop-color="#F7DD43"/>
<stop offset="1" stop-color="#F7DD43" stop-opacity="0"/>
</linearGradient>
<linearGradient id="paint7_linear_175_198" x1="76.5" y1="281" x2="76.5" y2="592.381" gradientUnits="userSpaceOnUse">
<stop stop-color="#F7DD43"/>
<stop offset="1" stop-color="#F7DD43" stop-opacity="0"/>
</linearGradient>
<linearGradient id="paint8_linear_175_198" x1="76.5" y1="281" x2="76.5" y2="592.381" gradientUnits="userSpaceOnUse">
<stop stop-color="#F7DD43"/>
<stop offset="1" stop-color="#F7DD43" stop-opacity="0"/>
</linearGradient>
<linearGradient id="paint9_linear_175_198" x1="76.5" y1="281" x2="76.5" y2="592.381" gradientUnits="userSpaceOnUse">
<stop stop-color="#F7DD43"/>
<stop offset="1" stop-color="#F7DD43" stop-opacity="0"/>
</linearGradient>
<linearGradient id="paint10_linear_175_198" x1="76.5" y1="281" x2="76.5" y2="592.381" gradientUnits="userSpaceOnUse">
<stop stop-color="#F7DD43"/>
<stop offset="1" stop-color="#F7DD43" stop-opacity="0"/>
</linearGradient>
<linearGradient id="paint11_linear_175_198" x1="76.5" y1="281" x2="76.5" y2="592.381" gradientUnits="userSpaceOnUse">
<stop stop-color="#F7DD43"/>
<stop offset="1" stop-color="#F7DD43" stop-opacity="0"/>
</linearGradient>
<linearGradient id="paint12_linear_175_198" x1="76.5" y1="281" x2="76.5" y2="592.381" gradientUnits="userSpaceOnUse">
<stop stop-color="#F7DD43"/>
<stop offset="1" stop-color="#F7DD43" stop-opacity="0"/>
</linearGradient>
<linearGradient id="paint13_linear_175_198" x1="76.5" y1="281" x2="76.5" y2="592.381" gradientUnits="userSpaceOnUse">
<stop stop-color="#F7DD43"/>
<stop offset="1" stop-color="#F7DD43" stop-opacity="0"/>
</linearGradient>
<linearGradient id="paint14_linear_175_198" x1="76.5" y1="281" x2="76.5" y2="592.381" gradientUnits="userSpaceOnUse">
<stop stop-color="#F7DD43"/>
<stop offset="1" stop-color="#F7DD43" stop-opacity="0"/>
</linearGradient>
<linearGradient id="paint15_linear_175_198" x1="76.5" y1="281" x2="76.5" y2="592.381" gradientUnits="userSpaceOnUse">
<stop stop-color="#F7DD43"/>
<stop offset="1" stop-color="#F7DD43" stop-opacity="0"/>
</linearGradient>
<linearGradient id="paint16_linear_175_198" x1="76.5" y1="281" x2="76.5" y2="592.381" gradientUnits="userSpaceOnUse">
<stop stop-color="#F7DD43"/>
<stop offset="1" stop-color="#F7DD43" stop-opacity="0"/>
</linearGradient>
<linearGradient id="paint17_linear_175_198" x1="76.5" y1="281" x2="76.5" y2="592.381" gradientUnits="userSpaceOnUse">
<stop stop-color="#F7DD43"/>
<stop offset="1" stop-color="#F7DD43" stop-opacity="0"/>
</linearGradient>
<linearGradient id="paint18_linear_175_198" x1="76.5" y1="281" x2="76.5" y2="592.381" gradientUnits="userSpaceOnUse">
<stop stop-color="#F7DD43"/>
<stop offset="1" stop-color="#F7DD43" stop-opacity="0"/>
</linearGradient>
<linearGradient id="paint19_linear_175_198" x1="76.5" y1="281" x2="76.5" y2="592.381" gradientUnits="userSpaceOnUse">
<stop stop-color="#F7DD43"/>
<stop offset="1" stop-color="#F7DD43" stop-opacity="0"/>
</linearGradient>
<linearGradient id="paint20_linear_175_198" x1="76.5" y1="281" x2="76.5" y2="592.381" gradientUnits="userSpaceOnUse">
<stop stop-color="#F7DD43"/>
<stop offset="1" stop-color="#F7DD43" stop-opacity="0"/>
</linearGradient>
<linearGradient id="paint21_linear_175_198" x1="76.5" y1="281" x2="76.5" y2="592.381" gradientUnits="userSpaceOnUse">
<stop stop-color="#F7DD43"/>
<stop offset="1" stop-color="#F7DD43" stop-opacity="0"/>
</linearGradient>
<linearGradient id="paint22_linear_175_198" x1="76.5" y1="281" x2="76.5" y2="592.381" gradientUnits="userSpaceOnUse">
<stop stop-color="#F7DD43"/>
<stop offset="1" stop-color="#F7DD43" stop-opacity="0"/>
</linearGradient>
<linearGradient id="paint23_linear_175_198" x1="76.5" y1="281" x2="76.5" y2="592.381" gradientUnits="userSpaceOnUse">
<stop stop-color="#F7DD43"/>
<stop offset="1" stop-color="#F7DD43" stop-opacity="0"/>
</linearGradient>
<linearGradient id="paint24_linear_175_198" x1="76.5" y1="281" x2="76.5" y2="592.381" gradientUnits="userSpaceOnUse">
<stop stop-color="#F7DD43"/>
<stop offset="1" stop-color="#F7DD43" stop-opacity="0"/>
</linearGradient>
<linearGradient id="paint25_linear_175_198" x1="76.5" y1="281" x2="76.5" y2="592.381" gradientUnits="userSpaceOnUse">
<stop stop-color="#F7DD43"/>
<stop offset="1" stop-color="#F7DD43" stop-opacity="0"/>
</linearGradient>
<linearGradient id="paint26_linear_175_198" x1="76.5" y1="281" x2="76.5" y2="592.381" gradientUnits="userSpaceOnUse">
<stop stop-color="#F7DD43"/>
<stop offset="1" stop-color="#F7DD43" stop-opacity="0"/>
</linearGradient>
<linearGradient id="paint27_linear_175_198" x1="76.5" y1="281" x2="76.5" y2="592.381" gradientUnits="userSpaceOnUse">
<stop stop-color="#F7DD43"/>
<stop offset="1" stop-color="#F7DD43" stop-opacity="0"/>
</linearGradient>
<linearGradient id="paint28_linear_175_198" x1="76.5" y1="281" x2="76.5" y2="592.381" gradientUnits="userSpaceOnUse">
<stop stop-color="#F7DD43"/>
<stop offset="1" stop-color="#F7DD43" stop-opacity="0"/>
</linearGradient>
<linearGradient id="paint29_linear_175_198" x1="76.5" y1="281" x2="76.5" y2="592.381" gradientUnits="userSpaceOnUse">
<stop stop-color="#F7DD43"/>
<stop offset="1" stop-color="#F7DD43" stop-opacity="0"/>
</linearGradient>
<linearGradient id="paint30_linear_175_198" x1="76.5" y1="281" x2="76.5" y2="592.381" gradientUnits="userSpaceOnUse">
<stop stop-color="#F7DD43"/>
<stop offset="1" stop-color="#F7DD43" stop-opacity="0"/>
</linearGradient>
<linearGradient id="paint31_linear_175_198" x1="76.5" y1="281" x2="76.5" y2="592.381" gradientUnits="userSpaceOnUse">
<stop stop-color="#F7DD43"/>
<stop offset="1" stop-color="#F7DD43" stop-opacity="0"/>
</linearGradient>
<linearGradient id="paint32_linear_175_198" x1="76.5" y1="281" x2="76.5" y2="592.381" gradientUnits="userSpaceOnUse">
<stop stop-color="#F7DD43"/>
<stop offset="1" stop-color="#F7DD43" stop-opacity="0"/>
</linearGradient>
<linearGradient id="paint33_linear_175_198" x1="76.5" y1="281" x2="76.5" y2="592.381" gradientUnits="userSpaceOnUse">
<stop stop-color="#F7DD43"/>
<stop offset="1" stop-color="#F7DD43" stop-opacity="0"/>
</linearGradient>
<linearGradient id="paint34_linear_175_198" x1="76.5" y1="281" x2="76.5" y2="592.381" gradientUnits="userSpaceOnUse">
<stop stop-color="#F7DD43"/>
<stop offset="1" stop-color="#F7DD43" stop-opacity="0"/>
</linearGradient>
<linearGradient id="paint35_linear_175_198" x1="76.5" y1="281" x2="76.5" y2="592.381" gradientUnits="userSpaceOnUse">
<stop stop-color="#F7DD43"/>
<stop offset="1" stop-color="#F7DD43" stop-opacity="0"/>
</linearGradient>
<linearGradient id="paint36_linear_175_198" x1="76.5" y1="281" x2="76.5" y2="592.381" gradientUnits="userSpaceOnUse">
<stop stop-color="#F7DD43"/>
<stop offset="1" stop-color="#F7DD43" stop-opacity="0"/>
</linearGradient>
<linearGradient id="paint37_linear_175_198" x1="76.5" y1="281" x2="76.5" y2="592.381" gradientUnits="userSpaceOnUse">
<stop stop-color="#F7DD43"/>
<stop offset="1" stop-color="#F7DD43" stop-opacity="0"/>
</linearGradient>
<linearGradient id="paint38_linear_175_198" x1="76.5" y1="281" x2="76.5" y2="592.381" gradientUnits="userSpaceOnUse">
<stop stop-color="#F7DD43"/>
<stop offset="1" stop-color="#F7DD43" stop-opacity="0"/>
</linearGradient>
<linearGradient id="paint39_linear_175_198" x1="76.5" y1="281" x2="76.5" y2="592.381" gradientUnits="userSpaceOnUse">
<stop stop-color="#F7DD43"/>
<stop offset="1" stop-color="#F7DD43" stop-opacity="0"/>
</linearGradient>
<linearGradient id="paint40_linear_175_198" x1="76.5" y1="281" x2="76.5" y2="592.381" gradientUnits="userSpaceOnUse">
<stop stop-color="#F7DD43"/>
<stop offset="1" stop-color="#F7DD43" stop-opacity="0"/>
</linearGradient>
<linearGradient id="paint41_linear_175_198" x1="76.5" y1="281" x2="76.5" y2="592.381" gradientUnits="userSpaceOnUse">
<stop stop-color="#F7DD43"/>
<stop offset="1" stop-color="#F7DD43" stop-opacity="0"/>
</linearGradient>
<linearGradient id="paint42_linear_175_198" x1="76.5" y1="281" x2="76.5" y2="592.381" gradientUnits="userSpaceOnUse">
<stop stop-color="#F7DD43"/>
<stop offset="1" stop-color="#F7DD43" stop-opacity="0"/>
</linearGradient>
<linearGradient id="paint43_linear_175_198" x1="76.5" y1="281" x2="76.5" y2="592.381" gradientUnits="userSpaceOnUse">
<stop stop-color="#F7DD43"/>
<stop offset="1" stop-color="#F7DD43" stop-opacity="0"/>
</linearGradient>
<linearGradient id="paint44_linear_175_198" x1="76.5" y1="281" x2="76.5" y2="592.381" gradientUnits="userSpaceOnUse">
<stop stop-color="#F7DD43"/>
<stop offset="1" stop-color="#F7DD43" stop-opacity="0"/>
</linearGradient>
<linearGradient id="paint45_linear_175_198" x1="76.5" y1="281" x2="76.5" y2="592.381" gradientUnits="userSpaceOnUse">
<stop stop-color="#F7DD43"/>
<stop offset="1" stop-color="#F7DD43" stop-opacity="0"/>
</linearGradient>
<linearGradient id="paint46_linear_175_198" x1="76.5" y1="281" x2="76.5" y2="592.381" gradientUnits="userSpaceOnUse">
<stop stop-color="#F7DD43"/>
<stop offset="1" stop-color="#F7DD43" stop-opacity="0"/>
</linearGradient>
<linearGradient id="paint47_linear_175_198" x1="962.5" y1="-19" x2="962.5" y2="279.818" gradientUnits="userSpaceOnUse">
<stop stop-color="#F7DD43"/>
<stop offset="1" stop-color="#F7DD43" stop-opacity="0"/>
</linearGradient>
<linearGradient id="paint48_linear_175_198" x1="962.5" y1="-19" x2="962.5" y2="279.818" gradientUnits="userSpaceOnUse">
<stop stop-color="#F7DD43"/>
<stop offset="1" stop-color="#F7DD43" stop-opacity="0"/>
</linearGradient>
<linearGradient id="paint49_linear_175_198" x1="962.5" y1="-19" x2="962.5" y2="279.818" gradientUnits="userSpaceOnUse">
<stop stop-color="#F7DD43"/>
<stop offset="1" stop-color="#F7DD43" stop-opacity="0"/>
</linearGradient>
<linearGradient id="paint50_linear_175_198" x1="962.5" y1="-19" x2="962.5" y2="279.818" gradientUnits="userSpaceOnUse">
<stop stop-color="#F7DD43"/>
<stop offset="1" stop-color="#F7DD43" stop-opacity="0"/>
</linearGradient>
<linearGradient id="paint51_linear_175_198" x1="962.5" y1="-19" x2="962.5" y2="279.818" gradientUnits="userSpaceOnUse">
<stop stop-color="#F7DD43"/>
<stop offset="1" stop-color="#F7DD43" stop-opacity="0"/>
</linearGradient>
<linearGradient id="paint52_linear_175_198" x1="962.5" y1="-19" x2="962.5" y2="279.818" gradientUnits="userSpaceOnUse">
<stop stop-color="#F7DD43"/>
<stop offset="1" stop-color="#F7DD43" stop-opacity="0"/>
</linearGradient>
<linearGradient id="paint53_linear_175_198" x1="962.5" y1="-19" x2="962.5" y2="279.818" gradientUnits="userSpaceOnUse">
<stop stop-color="#F7DD43"/>
<stop offset="1" stop-color="#F7DD43" stop-opacity="0"/>
</linearGradient>
<linearGradient id="paint54_linear_175_198" x1="962.5" y1="-19" x2="962.5" y2="279.818" gradientUnits="userSpaceOnUse">
<stop stop-color="#F7DD43"/>
<stop offset="1" stop-color="#F7DD43" stop-opacity="0"/>
</linearGradient>
<linearGradient id="paint55_linear_175_198" x1="962.5" y1="-19" x2="962.5" y2="279.818" gradientUnits="userSpaceOnUse">
<stop stop-color="#F7DD43"/>
<stop offset="1" stop-color="#F7DD43" stop-opacity="0"/>
</linearGradient>
<linearGradient id="paint56_linear_175_198" x1="962.5" y1="-19" x2="962.5" y2="279.818" gradientUnits="userSpaceOnUse">
<stop stop-color="#F7DD43"/>
<stop offset="1" stop-color="#F7DD43" stop-opacity="0"/>
</linearGradient>
<linearGradient id="paint57_linear_175_198" x1="962.5" y1="-19" x2="962.5" y2="279.818" gradientUnits="userSpaceOnUse">
<stop stop-color="#F7DD43"/>
<stop offset="1" stop-color="#F7DD43" stop-opacity="0"/>
</linearGradient>
<linearGradient id="paint58_linear_175_198" x1="962.5" y1="-19" x2="962.5" y2="279.818" gradientUnits="userSpaceOnUse">
<stop stop-color="#F7DD43"/>
<stop offset="1" stop-color="#F7DD43" stop-opacity="0"/>
</linearGradient>
<linearGradient id="paint59_linear_175_198" x1="962.5" y1="-19" x2="962.5" y2="279.818" gradientUnits="userSpaceOnUse">
<stop stop-color="#F7DD43"/>
<stop offset="1" stop-color="#F7DD43" stop-opacity="0"/>
</linearGradient>
<linearGradient id="paint60_linear_175_198" x1="962.5" y1="-19" x2="962.5" y2="279.818" gradientUnits="userSpaceOnUse">
<stop stop-color="#F7DD43"/>
<stop offset="1" stop-color="#F7DD43" stop-opacity="0"/>
</linearGradient>
<linearGradient id="paint61_linear_175_198" x1="962.5" y1="-19" x2="962.5" y2="279.818" gradientUnits="userSpaceOnUse">
<stop stop-color="#F7DD43"/>
<stop offset="1" stop-color="#F7DD43" stop-opacity="0"/>
</linearGradient>
<linearGradient id="paint62_linear_175_198" x1="962.5" y1="-19" x2="962.5" y2="279.818" gradientUnits="userSpaceOnUse">
<stop stop-color="#F7DD43"/>
<stop offset="1" stop-color="#F7DD43" stop-opacity="0"/>
</linearGradient>
<linearGradient id="paint63_linear_175_198" x1="962.5" y1="-19" x2="962.5" y2="279.818" gradientUnits="userSpaceOnUse">
<stop stop-color="#F7DD43"/>
<stop offset="1" stop-color="#F7DD43" stop-opacity="0"/>
</linearGradient>
<linearGradient id="paint64_linear_175_198" x1="962.5" y1="-19" x2="962.5" y2="279.818" gradientUnits="userSpaceOnUse">
<stop stop-color="#F7DD43"/>
<stop offset="1" stop-color="#F7DD43" stop-opacity="0"/>
</linearGradient>
<linearGradient id="paint65_linear_175_198" x1="962.5" y1="-19" x2="962.5" y2="279.818" gradientUnits="userSpaceOnUse">
<stop stop-color="#F7DD43"/>
<stop offset="1" stop-color="#F7DD43" stop-opacity="0"/>
</linearGradient>
<linearGradient id="paint66_linear_175_198" x1="962.5" y1="-19" x2="962.5" y2="279.818" gradientUnits="userSpaceOnUse">
<stop stop-color="#F7DD43"/>
<stop offset="1" stop-color="#F7DD43" stop-opacity="0"/>
</linearGradient>
<linearGradient id="paint67_linear_175_198" x1="962.5" y1="-19" x2="962.5" y2="279.818" gradientUnits="userSpaceOnUse">
<stop stop-color="#F7DD43"/>
<stop offset="1" stop-color="#F7DD43" stop-opacity="0"/>
</linearGradient>
<linearGradient id="paint68_linear_175_198" x1="962.5" y1="-19" x2="962.5" y2="279.818" gradientUnits="userSpaceOnUse">
<stop stop-color="#F7DD43"/>
<stop offset="1" stop-color="#F7DD43" stop-opacity="0"/>
</linearGradient>
<linearGradient id="paint69_linear_175_198" x1="962.5" y1="-19" x2="962.5" y2="279.818" gradientUnits="userSpaceOnUse">
<stop stop-color="#F7DD43"/>
<stop offset="1" stop-color="#F7DD43" stop-opacity="0"/>
</linearGradient>
<linearGradient id="paint70_linear_175_198" x1="962.5" y1="-19" x2="962.5" y2="279.818" gradientUnits="userSpaceOnUse">
<stop stop-color="#F7DD43"/>
<stop offset="1" stop-color="#F7DD43" stop-opacity="0"/>
</linearGradient>
<linearGradient id="paint71_linear_175_198" x1="962.5" y1="-19" x2="962.5" y2="279.818" gradientUnits="userSpaceOnUse">
<stop stop-color="#F7DD43"/>
<stop offset="1" stop-color="#F7DD43" stop-opacity="0"/>
</linearGradient>
<linearGradient id="paint72_linear_175_198" x1="962.5" y1="-19" x2="962.5" y2="279.818" gradientUnits="userSpaceOnUse">
<stop stop-color="#F7DD43"/>
<stop offset="1" stop-color="#F7DD43" stop-opacity="0"/>
</linearGradient>
<linearGradient id="paint73_linear_175_198" x1="962.5" y1="-19" x2="962.5" y2="279.818" gradientUnits="userSpaceOnUse">
<stop stop-color="#F7DD43"/>
<stop offset="1" stop-color="#F7DD43" stop-opacity="0"/>
</linearGradient>
<linearGradient id="paint74_linear_175_198" x1="962.5" y1="-19" x2="962.5" y2="279.818" gradientUnits="userSpaceOnUse">
<stop stop-color="#F7DD43"/>
<stop offset="1" stop-color="#F7DD43" stop-opacity="0"/>
</linearGradient>
<linearGradient id="paint75_linear_175_198" x1="962.5" y1="-19" x2="962.5" y2="279.818" gradientUnits="userSpaceOnUse">
<stop stop-color="#F7DD43"/>
<stop offset="1" stop-color="#F7DD43" stop-opacity="0"/>
</linearGradient>
<linearGradient id="paint76_linear_175_198" x1="962.5" y1="-19" x2="962.5" y2="279.818" gradientUnits="userSpaceOnUse">
<stop stop-color="#F7DD43"/>
<stop offset="1" stop-color="#F7DD43" stop-opacity="0"/>
</linearGradient>
<linearGradient id="paint77_linear_175_198" x1="962.5" y1="-19" x2="962.5" y2="279.818" gradientUnits="userSpaceOnUse">
<stop stop-color="#F7DD43"/>
<stop offset="1" stop-color="#F7DD43" stop-opacity="0"/>
</linearGradient>
<linearGradient id="paint78_linear_175_198" x1="962.5" y1="-19" x2="962.5" y2="279.818" gradientUnits="userSpaceOnUse">
<stop stop-color="#F7DD43"/>
<stop offset="1" stop-color="#F7DD43" stop-opacity="0"/>
</linearGradient>
<linearGradient id="paint79_linear_175_198" x1="962.5" y1="-19" x2="962.5" y2="279.818" gradientUnits="userSpaceOnUse">
<stop stop-color="#F7DD43"/>
<stop offset="1" stop-color="#F7DD43" stop-opacity="0"/>
</linearGradient>
<linearGradient id="paint80_linear_175_198" x1="962.5" y1="-19" x2="962.5" y2="279.818" gradientUnits="userSpaceOnUse">
<stop stop-color="#F7DD43"/>
<stop offset="1" stop-color="#F7DD43" stop-opacity="0"/>
</linearGradient>
<linearGradient id="paint81_linear_175_198" x1="962.5" y1="-19" x2="962.5" y2="279.818" gradientUnits="userSpaceOnUse">
<stop stop-color="#F7DD43"/>
<stop offset="1" stop-color="#F7DD43" stop-opacity="0"/>
</linearGradient>
<linearGradient id="paint82_linear_175_198" x1="962.5" y1="-19" x2="962.5" y2="279.818" gradientUnits="userSpaceOnUse">
<stop stop-color="#F7DD43"/>
<stop offset="1" stop-color="#F7DD43" stop-opacity="0"/>
</linearGradient>
<linearGradient id="paint83_linear_175_198" x1="962.5" y1="-19" x2="962.5" y2="279.818" gradientUnits="userSpaceOnUse">
<stop stop-color="#F7DD43"/>
<stop offset="1" stop-color="#F7DD43" stop-opacity="0"/>
</linearGradient>
<linearGradient id="paint84_linear_175_198" x1="962.5" y1="-19" x2="962.5" y2="279.818" gradientUnits="userSpaceOnUse">
<stop stop-color="#F7DD43"/>
<stop offset="1" stop-color="#F7DD43" stop-opacity="0"/>
</linearGradient>
<linearGradient id="paint85_linear_175_198" x1="962.5" y1="-19" x2="962.5" y2="279.818" gradientUnits="userSpaceOnUse">
<stop stop-color="#F7DD43"/>
<stop offset="1" stop-color="#F7DD43" stop-opacity="0"/>
</linearGradient>
<linearGradient id="paint86_linear_175_198" x1="962.5" y1="-19" x2="962.5" y2="279.818" gradientUnits="userSpaceOnUse">
<stop stop-color="#F7DD43"/>
<stop offset="1" stop-color="#F7DD43" stop-opacity="0"/>
</linearGradient>
<linearGradient id="paint87_linear_175_198" x1="962.5" y1="-19" x2="962.5" y2="279.818" gradientUnits="userSpaceOnUse">
<stop stop-color="#F7DD43"/>
<stop offset="1" stop-color="#F7DD43" stop-opacity="0"/>
</linearGradient>
<linearGradient id="paint88_linear_175_198" x1="962.5" y1="-19" x2="962.5" y2="279.818" gradientUnits="userSpaceOnUse">
<stop stop-color="#F7DD43"/>
<stop offset="1" stop-color="#F7DD43" stop-opacity="0"/>
</linearGradient>
<linearGradient id="paint89_linear_175_198" x1="962.5" y1="-19" x2="962.5" y2="279.818" gradientUnits="userSpaceOnUse">
<stop stop-color="#F7DD43"/>
<stop offset="1" stop-color="#F7DD43" stop-opacity="0"/>
</linearGradient>
<linearGradient id="paint90_linear_175_198" x1="962.5" y1="-19" x2="962.5" y2="279.818" gradientUnits="userSpaceOnUse">
<stop stop-color="#F7DD43"/>
<stop offset="1" stop-color="#F7DD43" stop-opacity="0"/>
</linearGradient>
<linearGradient id="paint91_linear_175_198" x1="962.5" y1="-19" x2="962.5" y2="279.818" gradientUnits="userSpaceOnUse">
<stop stop-color="#F7DD43"/>
<stop offset="1" stop-color="#F7DD43" stop-opacity="0"/>
</linearGradient>
<linearGradient id="paint92_linear_175_198" x1="962.5" y1="-19" x2="962.5" y2="279.818" gradientUnits="userSpaceOnUse">
<stop stop-color="#F7DD43"/>
<stop offset="1" stop-color="#F7DD43" stop-opacity="0"/>
</linearGradient>
<linearGradient id="paint93_linear_175_198" x1="962.5" y1="-19" x2="962.5" y2="279.818" gradientUnits="userSpaceOnUse">
<stop stop-color="#F7DD43"/>
<stop offset="1" stop-color="#F7DD43" stop-opacity="0"/>
</linearGradient>
</defs>
</svg>
